<svg xmlns="http://www.w3.org/2000/svg" width="156" height="174" viewBox="0 0 156 174">
  <defs>
    <style>
      .cls-1 {
        fill: #ab1c1c;
        fill-rule: evenodd;
      }
    </style>
  </defs>
  <path id="Shape" class="cls-1" d="M1490.37,719A12.4,12.4,0,1,1,1478,731.4,12.385,12.385,0,0,1,1490.37,719Zm0,74.6A12.4,12.4,0,1,1,1478,806,12.386,12.386,0,0,1,1490.37,793.6Zm0,74.6A12.4,12.4,0,1,1,1478,880.6,12.385,12.385,0,0,1,1490.37,868.206ZM1554.26,719a12.4,12.4,0,1,1-12.38,12.395A12.383,12.383,0,0,1,1554.26,719Zm0,74.6a12.4,12.4,0,1,1-12.38,12.4A12.384,12.384,0,0,1,1554.26,793.6Zm0,74.6a12.4,12.4,0,1,1-12.38,12.395A12.383,12.383,0,0,1,1554.26,868.206ZM1621.63,719a12.4,12.4,0,1,1-12.38,12.395A12.383,12.383,0,0,1,1621.63,719Zm0,74.6a12.4,12.4,0,1,1-12.38,12.4A12.384,12.384,0,0,1,1621.63,793.6Zm0,74.6a12.4,12.4,0,1,1-12.38,12.395A12.383,12.383,0,0,1,1621.63,868.206Z" transform="translate(-1478 -719)"/>
</svg>
